<mxfile host="app.diagrams.net" modified="2021-07-02T02:11:23.986Z" agent="5.0 (Windows NT 10.0; Win64; x64) AppleWebKit/537.36 (KHTML, like Gecko) Chrome/91.0.4472.114 Safari/537.36" etag="zax4i4kiQboNbgM5trf2" version="14.8.1" type="github">
  <diagram id="OeEtuY3XK8yWIjTcuCFp" name="Page-1">
    <mxGraphModel dx="1422" dy="762" grid="1" gridSize="10" guides="1" tooltips="1" connect="1" arrows="1" fold="1" page="1" pageScale="1" pageWidth="850" pageHeight="1100" math="0" shadow="0">
      <root>
        <mxCell id="0" />
        <mxCell id="1" parent="0" />
        <mxCell id="-FjoldNaI2Up81LqF_Sc-1" value="Create new Booking" style="rounded=1;whiteSpace=wrap;html=1;" vertex="1" parent="1">
          <mxGeometry x="40" y="40" width="120" height="60" as="geometry" />
        </mxCell>
        <mxCell id="-FjoldNaI2Up81LqF_Sc-4" value="&lt;div&gt;&lt;span&gt;Url: api/booking&lt;/span&gt;&lt;/div&gt;" style="rounded=0;whiteSpace=wrap;html=1;align=center;" vertex="1" parent="1">
          <mxGeometry x="240" y="50" width="150" height="40" as="geometry" />
        </mxCell>
        <mxCell id="-FjoldNaI2Up81LqF_Sc-5" value="&lt;div style=&quot;text-align: left&quot;&gt;&lt;span&gt;customer_name&lt;/span&gt;&lt;/div&gt;&lt;div style=&quot;text-align: left&quot;&gt;&lt;span&gt;customer_phone&lt;/span&gt;&lt;/div&gt;&lt;div style=&quot;text-align: left&quot;&gt;&lt;span&gt;date&lt;/span&gt;&lt;/div&gt;&lt;div style=&quot;text-align: left&quot;&gt;&lt;span&gt;start_time&lt;/span&gt;&lt;/div&gt;&lt;div style=&quot;text-align: left&quot;&gt;&lt;span&gt;end_time&lt;/span&gt;&lt;/div&gt;&lt;div style=&quot;text-align: left&quot;&gt;&lt;span&gt;source&lt;/span&gt;&lt;/div&gt;&lt;div style=&quot;text-align: left&quot;&gt;&lt;span&gt;room_id&lt;/span&gt;&lt;/div&gt;&lt;div style=&quot;text-align: left&quot;&gt;&lt;span&gt;type&lt;/span&gt;&lt;/div&gt;" style="rounded=0;whiteSpace=wrap;html=1;align=center;" vertex="1" parent="1">
          <mxGeometry x="440" y="160" width="110" height="130" as="geometry" />
        </mxCell>
        <mxCell id="-FjoldNaI2Up81LqF_Sc-8" value="" style="endArrow=classic;html=1;entryX=0;entryY=0.5;entryDx=0;entryDy=0;" edge="1" parent="1" target="-FjoldNaI2Up81LqF_Sc-4">
          <mxGeometry width="50" height="50" relative="1" as="geometry">
            <mxPoint x="160" y="70" as="sourcePoint" />
            <mxPoint x="210" y="20" as="targetPoint" />
          </mxGeometry>
        </mxCell>
        <mxCell id="-FjoldNaI2Up81LqF_Sc-9" value="" style="endArrow=classic;html=1;entryX=0;entryY=0.5;entryDx=0;entryDy=0;exitX=1;exitY=0.5;exitDx=0;exitDy=0;" edge="1" parent="1" source="-FjoldNaI2Up81LqF_Sc-1" target="-FjoldNaI2Up81LqF_Sc-10">
          <mxGeometry width="50" height="50" relative="1" as="geometry">
            <mxPoint x="160" y="189.5" as="sourcePoint" />
            <mxPoint x="240" y="189.5" as="targetPoint" />
          </mxGeometry>
        </mxCell>
        <mxCell id="-FjoldNaI2Up81LqF_Sc-10" value="Params" style="rounded=0;whiteSpace=wrap;html=1;" vertex="1" parent="1">
          <mxGeometry x="240" y="200" width="120" height="40" as="geometry" />
        </mxCell>
        <mxCell id="-FjoldNaI2Up81LqF_Sc-11" value="" style="endArrow=classic;html=1;exitX=1;exitY=0.5;exitDx=0;exitDy=0;" edge="1" source="-FjoldNaI2Up81LqF_Sc-10" parent="1">
          <mxGeometry width="50" height="50" relative="1" as="geometry">
            <mxPoint x="560" y="390" as="sourcePoint" />
            <mxPoint x="440" y="220" as="targetPoint" />
          </mxGeometry>
        </mxCell>
        <mxCell id="-FjoldNaI2Up81LqF_Sc-12" value="Response" style="rounded=0;whiteSpace=wrap;html=1;" vertex="1" parent="1">
          <mxGeometry x="240" y="301" width="120" height="39" as="geometry" />
        </mxCell>
        <mxCell id="-FjoldNaI2Up81LqF_Sc-13" value="" style="endArrow=classic;html=1;exitX=1;exitY=0.5;exitDx=0;exitDy=0;entryX=0;entryY=0.5;entryDx=0;entryDy=0;" edge="1" parent="1" source="-FjoldNaI2Up81LqF_Sc-12">
          <mxGeometry width="50" height="50" relative="1" as="geometry">
            <mxPoint x="560" y="481" as="sourcePoint" />
            <mxPoint x="440" y="321" as="targetPoint" />
          </mxGeometry>
        </mxCell>
        <mxCell id="-FjoldNaI2Up81LqF_Sc-14" value="&lt;div style=&quot;text-align: left&quot;&gt;&lt;span&gt;message: &quot;Đặt phòng thành công&quot;&lt;/span&gt;&lt;br&gt;&lt;/div&gt;" style="rounded=0;whiteSpace=wrap;html=1;align=center;" vertex="1" parent="1">
          <mxGeometry x="440" y="301" width="200" height="40" as="geometry" />
        </mxCell>
        <mxCell id="-FjoldNaI2Up81LqF_Sc-15" value="" style="endArrow=classic;html=1;exitX=1;exitY=0.5;exitDx=0;exitDy=0;entryX=0;entryY=0.5;entryDx=0;entryDy=0;" edge="1" parent="1" source="-FjoldNaI2Up81LqF_Sc-12" target="-FjoldNaI2Up81LqF_Sc-16">
          <mxGeometry width="50" height="50" relative="1" as="geometry">
            <mxPoint x="360" y="380.5" as="sourcePoint" />
            <mxPoint x="440" y="380.5" as="targetPoint" />
          </mxGeometry>
        </mxCell>
        <mxCell id="-FjoldNaI2Up81LqF_Sc-16" value="&lt;div style=&quot;text-align: left&quot;&gt;&lt;span&gt;message: &quot;Đặt phòng không thành công&quot;&lt;/span&gt;&lt;br&gt;&lt;/div&gt;&lt;div style=&quot;text-align: left&quot;&gt;&lt;span&gt;&lt;br&gt;&lt;/span&gt;&lt;/div&gt;&lt;div style=&quot;text-align: left&quot;&gt;message: &quot;Khung giờ này đã hết phòng&quot;&lt;span&gt;&lt;br&gt;&lt;/span&gt;&lt;/div&gt;" style="rounded=0;whiteSpace=wrap;html=1;align=center;" vertex="1" parent="1">
          <mxGeometry x="440" y="361" width="240" height="59" as="geometry" />
        </mxCell>
        <mxCell id="-FjoldNaI2Up81LqF_Sc-17" value="" style="endArrow=classic;html=1;entryX=0;entryY=0.5;entryDx=0;entryDy=0;" edge="1" parent="1" target="-FjoldNaI2Up81LqF_Sc-12">
          <mxGeometry width="50" height="50" relative="1" as="geometry">
            <mxPoint x="160" y="70" as="sourcePoint" />
            <mxPoint x="240" y="319.5" as="targetPoint" />
          </mxGeometry>
        </mxCell>
        <mxCell id="-FjoldNaI2Up81LqF_Sc-18" value="&lt;div&gt;&lt;span style=&quot;text-align: left&quot;&gt;Method: POST&lt;/span&gt;&lt;br&gt;&lt;/div&gt;" style="rounded=0;whiteSpace=wrap;html=1;align=center;" vertex="1" parent="1">
          <mxGeometry x="240" y="120" width="150" height="40" as="geometry" />
        </mxCell>
        <mxCell id="-FjoldNaI2Up81LqF_Sc-19" value="" style="endArrow=classic;html=1;entryX=0;entryY=0.5;entryDx=0;entryDy=0;exitX=1;exitY=0.5;exitDx=0;exitDy=0;" edge="1" parent="1" target="-FjoldNaI2Up81LqF_Sc-18" source="-FjoldNaI2Up81LqF_Sc-1">
          <mxGeometry width="50" height="50" relative="1" as="geometry">
            <mxPoint x="160" y="110" as="sourcePoint" />
            <mxPoint x="210" y="60" as="targetPoint" />
          </mxGeometry>
        </mxCell>
        <mxCell id="-FjoldNaI2Up81LqF_Sc-20" value="Get List Booking by Date" style="rounded=1;whiteSpace=wrap;html=1;" vertex="1" parent="1">
          <mxGeometry x="40" y="480" width="120" height="60" as="geometry" />
        </mxCell>
        <mxCell id="-FjoldNaI2Up81LqF_Sc-21" value="&lt;div&gt;&lt;span&gt;Url: api/booking&lt;/span&gt;&lt;/div&gt;" style="rounded=0;whiteSpace=wrap;html=1;align=center;" vertex="1" parent="1">
          <mxGeometry x="240" y="480" width="150" height="40" as="geometry" />
        </mxCell>
        <mxCell id="-FjoldNaI2Up81LqF_Sc-22" value="date" style="rounded=0;whiteSpace=wrap;html=1;align=center;" vertex="1" parent="1">
          <mxGeometry x="440" y="620" width="50" height="40" as="geometry" />
        </mxCell>
        <mxCell id="-FjoldNaI2Up81LqF_Sc-23" value="" style="endArrow=classic;html=1;entryX=0;entryY=0.5;entryDx=0;entryDy=0;" edge="1" parent="1" target="-FjoldNaI2Up81LqF_Sc-21">
          <mxGeometry width="50" height="50" relative="1" as="geometry">
            <mxPoint x="160" y="500" as="sourcePoint" />
            <mxPoint x="210" y="450" as="targetPoint" />
          </mxGeometry>
        </mxCell>
        <mxCell id="-FjoldNaI2Up81LqF_Sc-24" value="" style="endArrow=classic;html=1;entryX=0;entryY=0.5;entryDx=0;entryDy=0;exitX=1;exitY=0.5;exitDx=0;exitDy=0;" edge="1" parent="1" target="-FjoldNaI2Up81LqF_Sc-25">
          <mxGeometry width="50" height="50" relative="1" as="geometry">
            <mxPoint x="160" y="500" as="sourcePoint" />
            <mxPoint x="240" y="619.5" as="targetPoint" />
          </mxGeometry>
        </mxCell>
        <mxCell id="-FjoldNaI2Up81LqF_Sc-25" value="Params" style="rounded=0;whiteSpace=wrap;html=1;" vertex="1" parent="1">
          <mxGeometry x="240" y="620" width="120" height="40" as="geometry" />
        </mxCell>
        <mxCell id="-FjoldNaI2Up81LqF_Sc-26" value="" style="endArrow=classic;html=1;exitX=1;exitY=0.5;exitDx=0;exitDy=0;entryX=0;entryY=0.5;entryDx=0;entryDy=0;" edge="1" parent="1" source="-FjoldNaI2Up81LqF_Sc-25" target="-FjoldNaI2Up81LqF_Sc-22">
          <mxGeometry width="50" height="50" relative="1" as="geometry">
            <mxPoint x="560" y="820" as="sourcePoint" />
            <mxPoint x="440" y="660" as="targetPoint" />
          </mxGeometry>
        </mxCell>
        <mxCell id="-FjoldNaI2Up81LqF_Sc-27" value="&lt;div&gt;&lt;span style=&quot;text-align: left&quot;&gt;Method: GET&lt;/span&gt;&lt;/div&gt;" style="rounded=0;whiteSpace=wrap;html=1;align=center;" vertex="1" parent="1">
          <mxGeometry x="240" y="550" width="150" height="40" as="geometry" />
        </mxCell>
        <mxCell id="-FjoldNaI2Up81LqF_Sc-28" value="" style="endArrow=classic;html=1;entryX=0;entryY=0.5;entryDx=0;entryDy=0;exitX=1;exitY=0.5;exitDx=0;exitDy=0;" edge="1" parent="1" target="-FjoldNaI2Up81LqF_Sc-27">
          <mxGeometry width="50" height="50" relative="1" as="geometry">
            <mxPoint x="160" y="500" as="sourcePoint" />
            <mxPoint x="210" y="490" as="targetPoint" />
          </mxGeometry>
        </mxCell>
        <mxCell id="-FjoldNaI2Up81LqF_Sc-29" value="&lt;div&gt;[&lt;/div&gt;&lt;div&gt;&lt;span&gt;	&lt;/span&gt;&lt;span style=&quot;white-space: pre&quot;&gt;	&lt;/span&gt;{&lt;/div&gt;&lt;div&gt;&lt;span&gt;		&lt;/span&gt;&lt;span style=&quot;white-space: pre&quot;&gt;	&lt;/span&gt;&lt;span style=&quot;white-space: pre&quot;&gt;	&lt;/span&gt;room_id: 123456,&lt;/div&gt;&lt;div&gt;&lt;span&gt;		&lt;/span&gt;&lt;span style=&quot;white-space: pre&quot;&gt;	&lt;/span&gt;&lt;span style=&quot;white-space: pre&quot;&gt;	&lt;/span&gt;room_name: &quot;101&quot;&lt;/div&gt;&lt;div&gt;&lt;span&gt;		&lt;/span&gt;&lt;span style=&quot;white-space: pre&quot;&gt;	&lt;/span&gt;&lt;span style=&quot;white-space: pre&quot;&gt;	&lt;/span&gt;room_type: &quot;Nang xanh&quot;,&lt;/div&gt;&lt;div&gt;&lt;span style=&quot;white-space: pre&quot;&gt;	&lt;/span&gt;&lt;span style=&quot;white-space: pre&quot;&gt;	&lt;/span&gt;status: 1&amp;nbsp; // 1: available, 2: checking, 3: clean&lt;br&gt;&lt;/div&gt;&lt;div&gt;&lt;span&gt;		&lt;/span&gt;&lt;span style=&quot;white-space: pre&quot;&gt;	&lt;/span&gt;&lt;span style=&quot;white-space: pre&quot;&gt;	&lt;/span&gt;bookings: [&lt;/div&gt;&lt;div&gt;&lt;span&gt;			&lt;/span&gt;&lt;span style=&quot;white-space: pre&quot;&gt;	&lt;/span&gt;&lt;span style=&quot;white-space: pre&quot;&gt;	&lt;/span&gt;&lt;span style=&quot;white-space: pre&quot;&gt;	&lt;/span&gt;{&lt;/div&gt;&lt;div&gt;&lt;span&gt;&lt;span style=&quot;white-space: pre&quot;&gt;	&lt;/span&gt;&lt;span style=&quot;white-space: pre&quot;&gt;	&lt;/span&gt;&lt;span style=&quot;white-space: pre&quot;&gt;	&lt;/span&gt;&lt;span style=&quot;white-space: pre&quot;&gt;	&lt;/span&gt;id: &quot;booking1&quot;,&lt;/span&gt;&lt;/div&gt;&lt;div&gt;&lt;span&gt;&lt;span style=&quot;white-space: pre&quot;&gt;	&lt;/span&gt;&lt;span style=&quot;white-space: pre&quot;&gt;	&lt;/span&gt;&lt;span style=&quot;white-space: pre&quot;&gt;	&lt;/span&gt;&lt;span style=&quot;white-space: pre&quot;&gt;	&lt;/span&gt;customer_name: &quot;Sang&quot;,&lt;/span&gt;&lt;/div&gt;&lt;div&gt;&lt;span&gt;&lt;span style=&quot;white-space: pre&quot;&gt;	&lt;/span&gt;&lt;span style=&quot;white-space: pre&quot;&gt;	&lt;/span&gt;&lt;span style=&quot;white-space: pre&quot;&gt;	&lt;/span&gt;&lt;span style=&quot;white-space: pre&quot;&gt;	&lt;/span&gt;customer_phone: &quot;0909090909&quot;,&lt;/span&gt;&lt;/div&gt;&lt;div&gt;&lt;span&gt;&lt;span style=&quot;white-space: pre&quot;&gt;	&lt;/span&gt;&lt;span style=&quot;white-space: pre&quot;&gt;	&lt;/span&gt;&lt;span style=&quot;white-space: pre&quot;&gt;	&lt;/span&gt;&lt;span style=&quot;white-space: pre&quot;&gt;	&lt;/span&gt;type: &quot;hour&quot;&amp;nbsp;&lt;/span&gt;&lt;/div&gt;&lt;div&gt;&lt;span&gt;&lt;span style=&quot;white-space: pre&quot;&gt;	&lt;/span&gt;&lt;span style=&quot;white-space: pre&quot;&gt;	&lt;/span&gt;&lt;span style=&quot;white-space: pre&quot;&gt;	&lt;/span&gt;&lt;span style=&quot;white-space: pre&quot;&gt;	&lt;/span&gt;start_time: {&lt;/span&gt;&lt;/div&gt;&lt;div&gt;&lt;span&gt;&lt;span style=&quot;white-space: pre&quot;&gt;	&lt;/span&gt;&lt;span style=&quot;white-space: pre&quot;&gt;	&lt;/span&gt;&lt;span style=&quot;white-space: pre&quot;&gt;	&lt;/span&gt;&lt;span style=&quot;white-space: pre&quot;&gt;	&lt;/span&gt;&lt;span style=&quot;white-space: pre&quot;&gt;	&lt;/span&gt;hour: 7,&lt;/span&gt;&lt;/div&gt;&lt;div&gt;&lt;span&gt;					&lt;/span&gt;&lt;span style=&quot;white-space: pre&quot;&gt;	&lt;/span&gt;&lt;span style=&quot;white-space: pre&quot;&gt;	&lt;/span&gt;&lt;span style=&quot;white-space: pre&quot;&gt;	&lt;/span&gt;&lt;span style=&quot;white-space: pre&quot;&gt;	&lt;/span&gt;&lt;span style=&quot;white-space: pre&quot;&gt;	&lt;/span&gt;min: 30&lt;/div&gt;&lt;div&gt;&lt;span&gt;				&lt;/span&gt;&lt;span style=&quot;white-space: pre&quot;&gt;	&lt;/span&gt;&lt;span style=&quot;white-space: pre&quot;&gt;	&lt;/span&gt;&lt;span style=&quot;white-space: pre&quot;&gt;	&lt;/span&gt;&lt;span style=&quot;white-space: pre&quot;&gt;	&lt;/span&gt;},&lt;/div&gt;&lt;div&gt;&lt;span&gt;				&lt;/span&gt;&lt;span style=&quot;white-space: pre&quot;&gt;	&lt;/span&gt;&lt;span style=&quot;white-space: pre&quot;&gt;	&lt;/span&gt;&lt;span style=&quot;white-space: pre&quot;&gt;	&lt;/span&gt;&lt;span style=&quot;white-space: pre&quot;&gt;	&lt;/span&gt;end_time: {&lt;/div&gt;&lt;div&gt;&lt;span&gt;					&lt;/span&gt;&lt;span style=&quot;white-space: pre&quot;&gt;	&lt;/span&gt;&lt;span style=&quot;white-space: pre&quot;&gt;	&lt;/span&gt;&lt;span style=&quot;white-space: pre&quot;&gt;	&lt;/span&gt;&lt;span style=&quot;white-space: pre&quot;&gt;	&lt;/span&gt;&lt;span style=&quot;white-space: pre&quot;&gt;	&lt;/span&gt;hour: 10,&lt;/div&gt;&lt;div&gt;&lt;span&gt;					&lt;/span&gt;&lt;span style=&quot;white-space: pre&quot;&gt;	&lt;/span&gt;&lt;span style=&quot;white-space: pre&quot;&gt;	&lt;/span&gt;&lt;span style=&quot;white-space: pre&quot;&gt;	&lt;/span&gt;&lt;span style=&quot;white-space: pre&quot;&gt;	&lt;/span&gt;&lt;span style=&quot;white-space: pre&quot;&gt;	&lt;/span&gt;min: 0&lt;/div&gt;&lt;div&gt;&lt;span&gt;				&lt;/span&gt;&lt;span style=&quot;white-space: pre&quot;&gt;	&lt;/span&gt;&lt;span style=&quot;white-space: pre&quot;&gt;	&lt;/span&gt;&lt;span style=&quot;white-space: pre&quot;&gt;	&lt;/span&gt;&lt;span style=&quot;white-space: pre&quot;&gt;	&lt;/span&gt;},&lt;/div&gt;&lt;div&gt;&lt;span&gt;				&lt;/span&gt;&lt;span style=&quot;white-space: pre&quot;&gt;	&lt;/span&gt;&lt;span style=&quot;white-space: pre&quot;&gt;	&lt;/span&gt;&lt;span style=&quot;white-space: pre&quot;&gt;	&lt;/span&gt;&lt;span style=&quot;white-space: pre&quot;&gt;	&lt;/span&gt;source: &quot;g2j&quot;,&lt;/div&gt;&lt;div&gt;&lt;span&gt;			&lt;/span&gt;&lt;span style=&quot;white-space: pre&quot;&gt;	&lt;/span&gt;&lt;span style=&quot;white-space: pre&quot;&gt;	&lt;/span&gt;&lt;span style=&quot;white-space: pre&quot;&gt;	&lt;/span&gt;},&lt;/div&gt;&lt;div&gt;&lt;span&gt;			&lt;/span&gt;&lt;span style=&quot;white-space: pre&quot;&gt;	&lt;/span&gt;&lt;span style=&quot;white-space: pre&quot;&gt;	&lt;/span&gt;&lt;span style=&quot;white-space: pre&quot;&gt;	&lt;/span&gt;{&lt;/div&gt;&lt;div&gt;&lt;span&gt;				&lt;/span&gt;&lt;span style=&quot;white-space: pre&quot;&gt;	&lt;/span&gt;&lt;span style=&quot;white-space: pre&quot;&gt;	&lt;/span&gt;&lt;span style=&quot;white-space: pre&quot;&gt;	&lt;/span&gt;&lt;span style=&quot;white-space: pre&quot;&gt;	&lt;/span&gt;id: &quot;booking2&quot;,&lt;/div&gt;&lt;div&gt;&lt;span&gt;				&lt;/span&gt;&lt;span style=&quot;white-space: pre&quot;&gt;	&lt;/span&gt;&lt;span style=&quot;white-space: pre&quot;&gt;	&lt;/span&gt;&lt;span style=&quot;white-space: pre&quot;&gt;	&lt;/span&gt;&lt;span style=&quot;white-space: pre&quot;&gt;	&lt;/span&gt;customer_name: &quot;Luong La Da&quot;,&lt;/div&gt;&lt;div&gt;&lt;span&gt;				&lt;/span&gt;&lt;span style=&quot;white-space: pre&quot;&gt;	&lt;/span&gt;&lt;span style=&quot;white-space: pre&quot;&gt;	&lt;/span&gt;&lt;span style=&quot;white-space: pre&quot;&gt;	&lt;/span&gt;&lt;span style=&quot;white-space: pre&quot;&gt;	&lt;/span&gt;customer_phone: &quot;09012321312&quot;,&lt;/div&gt;&lt;div&gt;&lt;span&gt;				&lt;/span&gt;&lt;span style=&quot;white-space: pre&quot;&gt;	&lt;/span&gt;&lt;span style=&quot;white-space: pre&quot;&gt;	&lt;/span&gt;&lt;span style=&quot;white-space: pre&quot;&gt;	&lt;/span&gt;&lt;span style=&quot;white-space: pre&quot;&gt;	&lt;/span&gt;type: &quot;hour&quot;&amp;nbsp; // hour, day, overnight&lt;/div&gt;&lt;div&gt;&lt;span&gt;				&lt;/span&gt;&lt;span style=&quot;white-space: pre&quot;&gt;	&lt;/span&gt;&lt;span style=&quot;white-space: pre&quot;&gt;	&lt;/span&gt;&lt;span style=&quot;white-space: pre&quot;&gt;	&lt;/span&gt;&lt;span style=&quot;white-space: pre&quot;&gt;	&lt;/span&gt;start_time: {&lt;/div&gt;&lt;div&gt;&lt;span&gt;					&lt;/span&gt;&lt;span style=&quot;white-space: pre&quot;&gt;	&lt;/span&gt;&lt;span style=&quot;white-space: pre&quot;&gt;	&lt;/span&gt;&lt;span style=&quot;white-space: pre&quot;&gt;	&lt;/span&gt;&lt;span style=&quot;white-space: pre&quot;&gt;	&lt;/span&gt;&lt;span style=&quot;white-space: pre&quot;&gt;	&lt;/span&gt;hour: 14,&lt;/div&gt;&lt;div&gt;&lt;span&gt;					&lt;/span&gt;&lt;span style=&quot;white-space: pre&quot;&gt;	&lt;/span&gt;&lt;span style=&quot;white-space: pre&quot;&gt;	&lt;/span&gt;&lt;span style=&quot;white-space: pre&quot;&gt;	&lt;/span&gt;&lt;span style=&quot;white-space: pre&quot;&gt;	&lt;/span&gt;&lt;span style=&quot;white-space: pre&quot;&gt;	&lt;/span&gt;min: 0&lt;/div&gt;&lt;div&gt;&lt;span&gt;				&lt;/span&gt;&lt;span style=&quot;white-space: pre&quot;&gt;	&lt;/span&gt;&lt;span style=&quot;white-space: pre&quot;&gt;	&lt;/span&gt;&lt;span style=&quot;white-space: pre&quot;&gt;	&lt;span style=&quot;white-space: pre&quot;&gt;	&lt;/span&gt;&lt;/span&gt;},&lt;/div&gt;&lt;div&gt;&lt;span&gt;				&lt;/span&gt;&lt;span style=&quot;white-space: pre&quot;&gt;	&lt;/span&gt;&lt;span style=&quot;white-space: pre&quot;&gt;	&lt;/span&gt;&lt;span style=&quot;white-space: pre&quot;&gt;	&lt;/span&gt;&lt;span style=&quot;white-space: pre&quot;&gt;	&lt;/span&gt;end_time: {&lt;/div&gt;&lt;div&gt;&lt;span&gt;					&lt;/span&gt;&lt;span style=&quot;white-space: pre&quot;&gt;	&lt;/span&gt;&lt;span style=&quot;white-space: pre&quot;&gt;	&lt;/span&gt;&lt;span style=&quot;white-space: pre&quot;&gt;	&lt;/span&gt;&lt;span style=&quot;white-space: pre&quot;&gt;	&lt;/span&gt;&lt;span style=&quot;white-space: pre&quot;&gt;	&lt;/span&gt;hour: 18,&lt;/div&gt;&lt;div&gt;&lt;span&gt;					&lt;/span&gt;&lt;span style=&quot;white-space: pre&quot;&gt;	&lt;/span&gt;&lt;span style=&quot;white-space: pre&quot;&gt;	&lt;/span&gt;&lt;span style=&quot;white-space: pre&quot;&gt;	&lt;/span&gt;&lt;span style=&quot;white-space: pre&quot;&gt;	&lt;/span&gt;&lt;span style=&quot;white-space: pre&quot;&gt;	&lt;/span&gt;min: 0&lt;/div&gt;&lt;div&gt;&lt;span&gt;				&lt;/span&gt;&lt;span style=&quot;white-space: pre&quot;&gt;	&lt;/span&gt;&lt;span style=&quot;white-space: pre&quot;&gt;	&lt;/span&gt;&lt;span style=&quot;white-space: pre&quot;&gt;	&lt;/span&gt;&lt;span style=&quot;white-space: pre&quot;&gt;	&lt;/span&gt;},&lt;/div&gt;&lt;div&gt;&lt;span&gt;				&lt;/span&gt;&lt;span style=&quot;white-space: pre&quot;&gt;	&lt;/span&gt;&lt;span style=&quot;white-space: pre&quot;&gt;	&lt;/span&gt;&lt;span style=&quot;white-space: pre&quot;&gt;	&lt;/span&gt;&lt;span style=&quot;white-space: pre&quot;&gt;	&lt;/span&gt;source: &quot;facebook&quot;,&lt;/div&gt;&lt;div&gt;&lt;span style=&quot;white-space: pre&quot;&gt;	&lt;/span&gt;&lt;span style=&quot;white-space: pre&quot;&gt;	&lt;/span&gt;&lt;span style=&quot;white-space: pre&quot;&gt;	&lt;/span&gt;&lt;span style=&quot;white-space: pre&quot;&gt;	&lt;/span&gt;temp_fee: 300000&lt;br&gt;&lt;/div&gt;&lt;div&gt;&lt;span&gt;			&lt;/span&gt;&lt;span style=&quot;white-space: pre&quot;&gt;	&lt;/span&gt;&lt;span style=&quot;white-space: pre&quot;&gt;	&lt;/span&gt;&lt;span style=&quot;white-space: pre&quot;&gt;	&lt;/span&gt;}&lt;/div&gt;&lt;div&gt;&lt;span&gt;		&lt;/span&gt;&lt;span style=&quot;white-space: pre&quot;&gt;	&lt;/span&gt;&lt;span style=&quot;white-space: pre&quot;&gt;	&lt;/span&gt;]&lt;/div&gt;&lt;div&gt;&lt;span&gt;	&lt;/span&gt;&lt;span style=&quot;white-space: pre&quot;&gt;	&lt;/span&gt;},&lt;/div&gt;&lt;div&gt;&lt;span&gt;	&lt;/span&gt;&lt;span style=&quot;white-space: pre&quot;&gt;	&lt;/span&gt;{&lt;/div&gt;&lt;div&gt;&lt;span&gt;		&lt;/span&gt;&lt;span style=&quot;white-space: pre&quot;&gt;	&lt;/span&gt;&lt;span style=&quot;white-space: pre&quot;&gt;	&lt;/span&gt;room_id: 222222,&lt;/div&gt;&lt;div&gt;&lt;span&gt;		&lt;/span&gt;&lt;span style=&quot;white-space: pre&quot;&gt;	&lt;/span&gt;&lt;span style=&quot;white-space: pre&quot;&gt;	&lt;/span&gt;room_name: &quot;202&quot;&lt;/div&gt;&lt;div&gt;&lt;span&gt;		&lt;/span&gt;&lt;span style=&quot;white-space: pre&quot;&gt;	&lt;/span&gt;&lt;span style=&quot;white-space: pre&quot;&gt;	&lt;/span&gt;room_type: &quot;Bien Vang&quot;,&lt;/div&gt;&lt;div&gt;&lt;span style=&quot;white-space: pre&quot;&gt;	&lt;/span&gt;&lt;span style=&quot;white-space: pre&quot;&gt;	&lt;/span&gt;status: 2,&lt;br&gt;&lt;/div&gt;&lt;div&gt;&lt;span&gt;		&lt;/span&gt;&lt;span style=&quot;white-space: pre&quot;&gt;	&lt;/span&gt;&lt;span style=&quot;white-space: pre&quot;&gt;	&lt;/span&gt;bookings: [&lt;/div&gt;&lt;div&gt;&lt;span&gt;			&lt;/span&gt;&lt;span style=&quot;white-space: pre&quot;&gt;	&lt;/span&gt;&lt;span style=&quot;white-space: pre&quot;&gt;	&lt;/span&gt;&lt;span style=&quot;white-space: pre&quot;&gt;	&lt;/span&gt;{&lt;/div&gt;&lt;div&gt;&lt;span&gt;				&lt;/span&gt;&lt;span style=&quot;white-space: pre&quot;&gt;	&lt;/span&gt;&lt;span style=&quot;white-space: pre&quot;&gt;	&lt;/span&gt;&lt;span style=&quot;white-space: pre&quot;&gt;	&lt;/span&gt;&lt;span style=&quot;white-space: pre&quot;&gt;	&lt;/span&gt;id: &quot;booking99&quot;,&lt;/div&gt;&lt;div&gt;&lt;span&gt;				&lt;/span&gt;&lt;span style=&quot;white-space: pre&quot;&gt;	&lt;/span&gt;&lt;span style=&quot;white-space: pre&quot;&gt;	&lt;/span&gt;&lt;span style=&quot;white-space: pre&quot;&gt;	&lt;/span&gt;&lt;span style=&quot;white-space: pre&quot;&gt;	&lt;/span&gt;customer_name: &quot;Dat&quot;,&lt;/div&gt;&lt;div&gt;&lt;span&gt;				&lt;/span&gt;&lt;span style=&quot;white-space: pre&quot;&gt;	&lt;/span&gt;&lt;span style=&quot;white-space: pre&quot;&gt;	&lt;/span&gt;&lt;span style=&quot;white-space: pre&quot;&gt;	&lt;/span&gt;&lt;span style=&quot;white-space: pre&quot;&gt;	&lt;/span&gt;customer_phone: &quot;0912345678&quot;,&lt;/div&gt;&lt;div&gt;&lt;span&gt;				&lt;/span&gt;&lt;span style=&quot;white-space: pre&quot;&gt;	&lt;/span&gt;&lt;span style=&quot;white-space: pre&quot;&gt;	&lt;/span&gt;&lt;span style=&quot;white-space: pre&quot;&gt;	&lt;/span&gt;&lt;span style=&quot;white-space: pre&quot;&gt;	&lt;/span&gt;type: &quot;day&quot;&amp;nbsp;&lt;/div&gt;&lt;div&gt;&lt;span&gt;				&lt;/span&gt;&lt;span style=&quot;white-space: pre&quot;&gt;	&lt;/span&gt;&lt;span style=&quot;white-space: pre&quot;&gt;	&lt;/span&gt;&lt;span style=&quot;white-space: pre&quot;&gt;	&lt;/span&gt;&lt;span style=&quot;white-space: pre&quot;&gt;	&lt;/span&gt;start_time: {&lt;/div&gt;&lt;div&gt;&lt;span&gt;					&lt;/span&gt;&lt;span style=&quot;white-space: pre&quot;&gt;	&lt;/span&gt;&lt;span style=&quot;white-space: pre&quot;&gt;	&lt;/span&gt;&lt;span style=&quot;white-space: pre&quot;&gt;	&lt;/span&gt;&lt;span style=&quot;white-space: pre&quot;&gt;	&lt;/span&gt;&lt;span style=&quot;white-space: pre&quot;&gt;	&lt;/span&gt;hour: null,&lt;/div&gt;&lt;div&gt;&lt;span&gt;					&lt;/span&gt;&lt;span style=&quot;white-space: pre&quot;&gt;	&lt;/span&gt;&lt;span style=&quot;white-space: pre&quot;&gt;	&lt;/span&gt;&lt;span style=&quot;white-space: pre&quot;&gt;	&lt;/span&gt;&lt;span style=&quot;white-space: pre&quot;&gt;	&lt;/span&gt;&lt;span style=&quot;white-space: pre&quot;&gt;	&lt;/span&gt;min: null&lt;/div&gt;&lt;div&gt;&lt;span&gt;				&lt;/span&gt;&lt;span style=&quot;white-space: pre&quot;&gt;	&lt;/span&gt;&lt;span style=&quot;white-space: pre&quot;&gt;	&lt;/span&gt;&lt;span style=&quot;white-space: pre&quot;&gt;	&lt;/span&gt;&lt;span style=&quot;white-space: pre&quot;&gt;	&lt;/span&gt;},&lt;/div&gt;&lt;div&gt;&lt;span&gt;				&lt;/span&gt;&lt;span style=&quot;white-space: pre&quot;&gt;	&lt;/span&gt;&lt;span style=&quot;white-space: pre&quot;&gt;	&lt;/span&gt;&lt;span style=&quot;white-space: pre&quot;&gt;	&lt;/span&gt;&lt;span style=&quot;white-space: pre&quot;&gt;	&lt;/span&gt;end_time: {&lt;/div&gt;&lt;div&gt;&lt;span&gt;					&lt;/span&gt;&lt;span style=&quot;white-space: pre&quot;&gt;	&lt;/span&gt;&lt;span style=&quot;white-space: pre&quot;&gt;	&lt;/span&gt;&lt;span style=&quot;white-space: pre&quot;&gt;	&lt;/span&gt;&lt;span style=&quot;white-space: pre&quot;&gt;	&lt;/span&gt;&lt;span style=&quot;white-space: pre&quot;&gt;	&lt;/span&gt;hour: null,&lt;/div&gt;&lt;div&gt;&lt;span&gt;					&lt;/span&gt;&lt;span style=&quot;white-space: pre&quot;&gt;	&lt;/span&gt;&lt;span style=&quot;white-space: pre&quot;&gt;	&lt;/span&gt;&lt;span style=&quot;white-space: pre&quot;&gt;	&lt;/span&gt;&lt;span style=&quot;white-space: pre&quot;&gt;	&lt;/span&gt;&lt;span style=&quot;white-space: pre&quot;&gt;	&lt;/span&gt;min: null&lt;/div&gt;&lt;div&gt;&lt;span&gt;				&lt;/span&gt;&lt;span style=&quot;white-space: pre&quot;&gt;	&lt;/span&gt;&lt;span style=&quot;white-space: pre&quot;&gt;	&lt;/span&gt;&lt;span style=&quot;white-space: pre&quot;&gt;	&lt;/span&gt;&lt;span style=&quot;white-space: pre&quot;&gt;	&lt;/span&gt;},&lt;/div&gt;&lt;div&gt;&lt;span&gt;				&lt;/span&gt;&lt;span style=&quot;white-space: pre&quot;&gt;	&lt;/span&gt;&lt;span style=&quot;white-space: pre&quot;&gt;	&lt;/span&gt;&lt;span style=&quot;white-space: pre&quot;&gt;	&lt;/span&gt;&lt;span style=&quot;white-space: pre&quot;&gt;	&lt;/span&gt;source: &quot;&quot;,&lt;/div&gt;&lt;div&gt;&lt;span style=&quot;white-space: pre&quot;&gt;	&lt;/span&gt;&lt;span style=&quot;white-space: pre&quot;&gt;	&lt;/span&gt;&lt;span style=&quot;white-space: pre&quot;&gt;	&lt;/span&gt;&lt;span style=&quot;white-space: pre&quot;&gt;	&lt;/span&gt;temp_fee: 500000&lt;br&gt;&lt;/div&gt;&lt;div&gt;&lt;span&gt;			&lt;/span&gt;&lt;span style=&quot;white-space: pre&quot;&gt;	&lt;/span&gt;&lt;span style=&quot;white-space: pre&quot;&gt;	&lt;/span&gt;&lt;span style=&quot;white-space: pre&quot;&gt;	&lt;/span&gt;},&lt;/div&gt;&lt;div&gt;&lt;span&gt;			&lt;/span&gt;&lt;/div&gt;&lt;div&gt;&lt;span&gt;		&lt;/span&gt;&lt;span style=&quot;white-space: pre&quot;&gt;	&lt;/span&gt;&lt;span style=&quot;white-space: pre&quot;&gt;	&lt;/span&gt;]&lt;/div&gt;&lt;div&gt;&lt;span&gt;	&lt;/span&gt;&lt;span style=&quot;white-space: pre&quot;&gt;	&lt;/span&gt;}&lt;/div&gt;&lt;div&gt;]&lt;/div&gt;" style="rounded=0;whiteSpace=wrap;html=1;align=left;" vertex="1" parent="1">
          <mxGeometry x="440" y="680" width="400" height="930" as="geometry" />
        </mxCell>
        <mxCell id="-FjoldNaI2Up81LqF_Sc-30" value="" style="endArrow=classic;html=1;entryX=0;entryY=0.5;entryDx=0;entryDy=0;exitX=1;exitY=0.5;exitDx=0;exitDy=0;" edge="1" parent="1" target="-FjoldNaI2Up81LqF_Sc-31" source="-FjoldNaI2Up81LqF_Sc-20">
          <mxGeometry width="50" height="50" relative="1" as="geometry">
            <mxPoint x="160" y="560" as="sourcePoint" />
            <mxPoint x="240" y="679.5" as="targetPoint" />
          </mxGeometry>
        </mxCell>
        <mxCell id="-FjoldNaI2Up81LqF_Sc-31" value="Response" style="rounded=0;whiteSpace=wrap;html=1;" vertex="1" parent="1">
          <mxGeometry x="240" y="700" width="120" height="40" as="geometry" />
        </mxCell>
        <mxCell id="-FjoldNaI2Up81LqF_Sc-32" value="" style="endArrow=classic;html=1;exitX=1;exitY=0.5;exitDx=0;exitDy=0;entryX=0;entryY=0.5;entryDx=0;entryDy=0;" edge="1" parent="1" source="-FjoldNaI2Up81LqF_Sc-31">
          <mxGeometry width="50" height="50" relative="1" as="geometry">
            <mxPoint x="560" y="880" as="sourcePoint" />
            <mxPoint x="440" y="720" as="targetPoint" />
          </mxGeometry>
        </mxCell>
        <mxCell id="-FjoldNaI2Up81LqF_Sc-34" value="200" style="text;html=1;strokeColor=none;fillColor=none;align=center;verticalAlign=middle;whiteSpace=wrap;rounded=0;" vertex="1" parent="1">
          <mxGeometry x="380" y="300" width="40" height="20" as="geometry" />
        </mxCell>
        <mxCell id="-FjoldNaI2Up81LqF_Sc-35" value="!= 200" style="text;html=1;strokeColor=none;fillColor=none;align=center;verticalAlign=middle;whiteSpace=wrap;rounded=0;" vertex="1" parent="1">
          <mxGeometry x="370" y="361" width="40" height="20" as="geometry" />
        </mxCell>
        <mxCell id="-FjoldNaI2Up81LqF_Sc-40" value="Checking&lt;span style=&quot;white-space: pre&quot;&gt;	&lt;/span&gt;" style="rounded=1;whiteSpace=wrap;html=1;" vertex="1" parent="1">
          <mxGeometry x="40" y="1680" width="120" height="60" as="geometry" />
        </mxCell>
        <mxCell id="-FjoldNaI2Up81LqF_Sc-41" value="&lt;div&gt;&lt;span&gt;Url: api/checking&lt;/span&gt;&lt;/div&gt;" style="rounded=0;whiteSpace=wrap;html=1;align=center;" vertex="1" parent="1">
          <mxGeometry x="240" y="1690" width="150" height="40" as="geometry" />
        </mxCell>
        <mxCell id="-FjoldNaI2Up81LqF_Sc-42" value="&lt;div style=&quot;text-align: left&quot;&gt;booking_id&lt;/div&gt;" style="rounded=0;whiteSpace=wrap;html=1;align=center;" vertex="1" parent="1">
          <mxGeometry x="440" y="1840" width="110" height="40" as="geometry" />
        </mxCell>
        <mxCell id="-FjoldNaI2Up81LqF_Sc-43" value="" style="endArrow=classic;html=1;entryX=0;entryY=0.5;entryDx=0;entryDy=0;" edge="1" parent="1" target="-FjoldNaI2Up81LqF_Sc-41">
          <mxGeometry width="50" height="50" relative="1" as="geometry">
            <mxPoint x="160" y="1710" as="sourcePoint" />
            <mxPoint x="210" y="1660" as="targetPoint" />
          </mxGeometry>
        </mxCell>
        <mxCell id="-FjoldNaI2Up81LqF_Sc-44" value="" style="endArrow=classic;html=1;entryX=0;entryY=0.5;entryDx=0;entryDy=0;exitX=1;exitY=0.5;exitDx=0;exitDy=0;" edge="1" parent="1" source="-FjoldNaI2Up81LqF_Sc-40" target="-FjoldNaI2Up81LqF_Sc-45">
          <mxGeometry width="50" height="50" relative="1" as="geometry">
            <mxPoint x="160" y="1829.5" as="sourcePoint" />
            <mxPoint x="240" y="1829.5" as="targetPoint" />
          </mxGeometry>
        </mxCell>
        <mxCell id="-FjoldNaI2Up81LqF_Sc-45" value="Params" style="rounded=0;whiteSpace=wrap;html=1;" vertex="1" parent="1">
          <mxGeometry x="240" y="1840" width="120" height="40" as="geometry" />
        </mxCell>
        <mxCell id="-FjoldNaI2Up81LqF_Sc-46" value="" style="endArrow=classic;html=1;exitX=1;exitY=0.5;exitDx=0;exitDy=0;" edge="1" parent="1" source="-FjoldNaI2Up81LqF_Sc-45">
          <mxGeometry width="50" height="50" relative="1" as="geometry">
            <mxPoint x="560" y="2030" as="sourcePoint" />
            <mxPoint x="440" y="1860" as="targetPoint" />
          </mxGeometry>
        </mxCell>
        <mxCell id="-FjoldNaI2Up81LqF_Sc-47" value="Response" style="rounded=0;whiteSpace=wrap;html=1;" vertex="1" parent="1">
          <mxGeometry x="240" y="1941" width="120" height="39" as="geometry" />
        </mxCell>
        <mxCell id="-FjoldNaI2Up81LqF_Sc-48" value="" style="endArrow=classic;html=1;exitX=1;exitY=0.5;exitDx=0;exitDy=0;entryX=0;entryY=0.5;entryDx=0;entryDy=0;" edge="1" parent="1" source="-FjoldNaI2Up81LqF_Sc-47">
          <mxGeometry width="50" height="50" relative="1" as="geometry">
            <mxPoint x="560" y="2121" as="sourcePoint" />
            <mxPoint x="440" y="1961" as="targetPoint" />
          </mxGeometry>
        </mxCell>
        <mxCell id="-FjoldNaI2Up81LqF_Sc-49" value="&lt;div style=&quot;text-align: left&quot;&gt;&lt;span&gt;message: &quot;Checking thành công&quot;&lt;/span&gt;&lt;br&gt;&lt;/div&gt;" style="rounded=0;whiteSpace=wrap;html=1;align=center;" vertex="1" parent="1">
          <mxGeometry x="440" y="1941" width="200" height="40" as="geometry" />
        </mxCell>
        <mxCell id="-FjoldNaI2Up81LqF_Sc-50" value="" style="endArrow=classic;html=1;exitX=1;exitY=0.5;exitDx=0;exitDy=0;entryX=0;entryY=0.5;entryDx=0;entryDy=0;" edge="1" parent="1" source="-FjoldNaI2Up81LqF_Sc-47" target="-FjoldNaI2Up81LqF_Sc-51">
          <mxGeometry width="50" height="50" relative="1" as="geometry">
            <mxPoint x="360" y="2020.5" as="sourcePoint" />
            <mxPoint x="440" y="2020.5" as="targetPoint" />
          </mxGeometry>
        </mxCell>
        <mxCell id="-FjoldNaI2Up81LqF_Sc-51" value="&lt;div style=&quot;text-align: left&quot;&gt;&lt;span&gt;message: &quot;Checking không thành công&quot;&lt;/span&gt;&lt;/div&gt;" style="rounded=0;whiteSpace=wrap;html=1;align=center;" vertex="1" parent="1">
          <mxGeometry x="440" y="2001" width="240" height="39" as="geometry" />
        </mxCell>
        <mxCell id="-FjoldNaI2Up81LqF_Sc-52" value="" style="endArrow=classic;html=1;entryX=0;entryY=0.5;entryDx=0;entryDy=0;" edge="1" parent="1" target="-FjoldNaI2Up81LqF_Sc-47">
          <mxGeometry width="50" height="50" relative="1" as="geometry">
            <mxPoint x="160" y="1710" as="sourcePoint" />
            <mxPoint x="240" y="1959.5" as="targetPoint" />
          </mxGeometry>
        </mxCell>
        <mxCell id="-FjoldNaI2Up81LqF_Sc-53" value="&lt;div&gt;&lt;span style=&quot;text-align: left&quot;&gt;Method: POST&lt;/span&gt;&lt;br&gt;&lt;/div&gt;" style="rounded=0;whiteSpace=wrap;html=1;align=center;" vertex="1" parent="1">
          <mxGeometry x="240" y="1760" width="150" height="40" as="geometry" />
        </mxCell>
        <mxCell id="-FjoldNaI2Up81LqF_Sc-54" value="" style="endArrow=classic;html=1;entryX=0;entryY=0.5;entryDx=0;entryDy=0;exitX=1;exitY=0.5;exitDx=0;exitDy=0;" edge="1" parent="1" source="-FjoldNaI2Up81LqF_Sc-40" target="-FjoldNaI2Up81LqF_Sc-53">
          <mxGeometry width="50" height="50" relative="1" as="geometry">
            <mxPoint x="160" y="1750" as="sourcePoint" />
            <mxPoint x="210" y="1700" as="targetPoint" />
          </mxGeometry>
        </mxCell>
        <mxCell id="-FjoldNaI2Up81LqF_Sc-55" value="200" style="text;html=1;strokeColor=none;fillColor=none;align=center;verticalAlign=middle;whiteSpace=wrap;rounded=0;" vertex="1" parent="1">
          <mxGeometry x="380" y="1940" width="40" height="20" as="geometry" />
        </mxCell>
        <mxCell id="-FjoldNaI2Up81LqF_Sc-56" value="!= 200" style="text;html=1;strokeColor=none;fillColor=none;align=center;verticalAlign=middle;whiteSpace=wrap;rounded=0;" vertex="1" parent="1">
          <mxGeometry x="370" y="2001" width="40" height="20" as="geometry" />
        </mxCell>
        <mxCell id="-FjoldNaI2Up81LqF_Sc-57" value="Checkout&lt;span style=&quot;white-space: pre&quot;&gt;	&lt;/span&gt;" style="rounded=1;whiteSpace=wrap;html=1;" vertex="1" parent="1">
          <mxGeometry x="40" y="2080" width="120" height="60" as="geometry" />
        </mxCell>
        <mxCell id="-FjoldNaI2Up81LqF_Sc-58" value="&lt;div&gt;&lt;span&gt;Url: api/checkout&lt;/span&gt;&lt;/div&gt;" style="rounded=0;whiteSpace=wrap;html=1;align=center;" vertex="1" parent="1">
          <mxGeometry x="240" y="2090" width="150" height="40" as="geometry" />
        </mxCell>
        <mxCell id="-FjoldNaI2Up81LqF_Sc-59" value="&lt;div style=&quot;text-align: left&quot;&gt;&lt;div&gt;{&lt;/div&gt;&lt;div&gt;&lt;span&gt;	&lt;/span&gt;&lt;span style=&quot;white-space: pre&quot;&gt;	&lt;/span&gt;booking_id: 123456,&lt;/div&gt;&lt;div&gt;&lt;span&gt;	&lt;/span&gt;&lt;span style=&quot;white-space: pre&quot;&gt;	&lt;/span&gt;total_fee: 400000,&lt;/div&gt;&lt;div&gt;&lt;span&gt;	&lt;/span&gt;&lt;span style=&quot;white-space: pre&quot;&gt;	&lt;/span&gt;room_fee: 350000,&lt;/div&gt;&lt;div&gt;&lt;span&gt;	&lt;/span&gt;&lt;span style=&quot;white-space: pre&quot;&gt;	&lt;/span&gt;other_fee: {&lt;/div&gt;&lt;div&gt;&lt;span&gt;		&lt;/span&gt;&lt;span style=&quot;white-space: pre&quot;&gt;	&lt;/span&gt;&lt;span style=&quot;white-space: pre&quot;&gt;	&lt;/span&gt;aquafina: { amount: 2, fee: 20000},&lt;/div&gt;&lt;div&gt;&lt;span&gt;		&lt;/span&gt;&lt;span style=&quot;white-space: pre&quot;&gt;	&lt;/span&gt;&lt;span style=&quot;white-space: pre&quot;&gt;	&lt;/span&gt;snack: { amount: 1, fee: 10000},&lt;/div&gt;&lt;div&gt;&lt;span&gt;		&lt;/span&gt;&lt;span style=&quot;white-space: pre&quot;&gt;	&lt;/span&gt;&lt;span style=&quot;white-space: pre&quot;&gt;	&lt;/span&gt;pepsi: { amount: 1, fee: 20000},&lt;/div&gt;&lt;div&gt;&lt;span&gt;	&lt;/span&gt;&lt;span style=&quot;white-space: pre&quot;&gt;	&lt;/span&gt;},&lt;/div&gt;&lt;div&gt;&lt;span&gt;	&lt;/span&gt;&lt;span style=&quot;white-space: pre&quot;&gt;	&lt;/span&gt;payment_method: &quot;cash&quot;&amp;nbsp; // cash, transfer, credit card&lt;/div&gt;&lt;div&gt;}&lt;/div&gt;&lt;/div&gt;" style="rounded=0;whiteSpace=wrap;html=1;align=center;" vertex="1" parent="1">
          <mxGeometry x="440" y="2240" width="350" height="200" as="geometry" />
        </mxCell>
        <mxCell id="-FjoldNaI2Up81LqF_Sc-60" value="" style="endArrow=classic;html=1;entryX=0;entryY=0.5;entryDx=0;entryDy=0;" edge="1" parent="1" target="-FjoldNaI2Up81LqF_Sc-58">
          <mxGeometry width="50" height="50" relative="1" as="geometry">
            <mxPoint x="160" y="2110" as="sourcePoint" />
            <mxPoint x="210" y="2060" as="targetPoint" />
          </mxGeometry>
        </mxCell>
        <mxCell id="-FjoldNaI2Up81LqF_Sc-61" value="" style="endArrow=classic;html=1;entryX=0;entryY=0.5;entryDx=0;entryDy=0;exitX=1;exitY=0.5;exitDx=0;exitDy=0;" edge="1" parent="1" source="-FjoldNaI2Up81LqF_Sc-57" target="-FjoldNaI2Up81LqF_Sc-62">
          <mxGeometry width="50" height="50" relative="1" as="geometry">
            <mxPoint x="160" y="2229.5" as="sourcePoint" />
            <mxPoint x="240" y="2229.5" as="targetPoint" />
          </mxGeometry>
        </mxCell>
        <mxCell id="-FjoldNaI2Up81LqF_Sc-62" value="Params" style="rounded=0;whiteSpace=wrap;html=1;" vertex="1" parent="1">
          <mxGeometry x="240" y="2240" width="120" height="40" as="geometry" />
        </mxCell>
        <mxCell id="-FjoldNaI2Up81LqF_Sc-63" value="" style="endArrow=classic;html=1;exitX=1;exitY=0.5;exitDx=0;exitDy=0;" edge="1" parent="1" source="-FjoldNaI2Up81LqF_Sc-62">
          <mxGeometry width="50" height="50" relative="1" as="geometry">
            <mxPoint x="560" y="2430" as="sourcePoint" />
            <mxPoint x="440" y="2260" as="targetPoint" />
          </mxGeometry>
        </mxCell>
        <mxCell id="-FjoldNaI2Up81LqF_Sc-64" value="Response" style="rounded=0;whiteSpace=wrap;html=1;" vertex="1" parent="1">
          <mxGeometry x="240" y="2481" width="120" height="39" as="geometry" />
        </mxCell>
        <mxCell id="-FjoldNaI2Up81LqF_Sc-65" value="" style="endArrow=classic;html=1;exitX=1;exitY=0.5;exitDx=0;exitDy=0;entryX=0;entryY=0.5;entryDx=0;entryDy=0;" edge="1" parent="1" source="-FjoldNaI2Up81LqF_Sc-64">
          <mxGeometry width="50" height="50" relative="1" as="geometry">
            <mxPoint x="560" y="2661" as="sourcePoint" />
            <mxPoint x="440" y="2501" as="targetPoint" />
          </mxGeometry>
        </mxCell>
        <mxCell id="-FjoldNaI2Up81LqF_Sc-66" value="&lt;div style=&quot;text-align: left&quot;&gt;&lt;span&gt;message: &quot;Checkout thành công&quot;&lt;/span&gt;&lt;br&gt;&lt;/div&gt;" style="rounded=0;whiteSpace=wrap;html=1;align=center;" vertex="1" parent="1">
          <mxGeometry x="440" y="2481" width="200" height="40" as="geometry" />
        </mxCell>
        <mxCell id="-FjoldNaI2Up81LqF_Sc-67" value="" style="endArrow=classic;html=1;exitX=1;exitY=0.5;exitDx=0;exitDy=0;entryX=0;entryY=0.5;entryDx=0;entryDy=0;" edge="1" parent="1" source="-FjoldNaI2Up81LqF_Sc-64" target="-FjoldNaI2Up81LqF_Sc-68">
          <mxGeometry width="50" height="50" relative="1" as="geometry">
            <mxPoint x="360" y="2560.5" as="sourcePoint" />
            <mxPoint x="440" y="2560.5" as="targetPoint" />
          </mxGeometry>
        </mxCell>
        <mxCell id="-FjoldNaI2Up81LqF_Sc-68" value="&lt;div style=&quot;text-align: left&quot;&gt;&lt;span&gt;message: &quot;Checkout không thành công&quot;&lt;/span&gt;&lt;/div&gt;" style="rounded=0;whiteSpace=wrap;html=1;align=center;" vertex="1" parent="1">
          <mxGeometry x="440" y="2541" width="240" height="39" as="geometry" />
        </mxCell>
        <mxCell id="-FjoldNaI2Up81LqF_Sc-69" value="" style="endArrow=classic;html=1;entryX=0;entryY=0.5;entryDx=0;entryDy=0;" edge="1" parent="1" target="-FjoldNaI2Up81LqF_Sc-64">
          <mxGeometry width="50" height="50" relative="1" as="geometry">
            <mxPoint x="160" y="2110" as="sourcePoint" />
            <mxPoint x="240" y="2359.5" as="targetPoint" />
          </mxGeometry>
        </mxCell>
        <mxCell id="-FjoldNaI2Up81LqF_Sc-70" value="&lt;div&gt;&lt;span style=&quot;text-align: left&quot;&gt;Method: POST&lt;/span&gt;&lt;br&gt;&lt;/div&gt;" style="rounded=0;whiteSpace=wrap;html=1;align=center;" vertex="1" parent="1">
          <mxGeometry x="240" y="2160" width="150" height="40" as="geometry" />
        </mxCell>
        <mxCell id="-FjoldNaI2Up81LqF_Sc-71" value="" style="endArrow=classic;html=1;entryX=0;entryY=0.5;entryDx=0;entryDy=0;exitX=1;exitY=0.5;exitDx=0;exitDy=0;" edge="1" parent="1" source="-FjoldNaI2Up81LqF_Sc-57" target="-FjoldNaI2Up81LqF_Sc-70">
          <mxGeometry width="50" height="50" relative="1" as="geometry">
            <mxPoint x="160" y="2150" as="sourcePoint" />
            <mxPoint x="210" y="2100" as="targetPoint" />
          </mxGeometry>
        </mxCell>
        <mxCell id="-FjoldNaI2Up81LqF_Sc-72" value="200" style="text;html=1;strokeColor=none;fillColor=none;align=center;verticalAlign=middle;whiteSpace=wrap;rounded=0;" vertex="1" parent="1">
          <mxGeometry x="380" y="2480" width="40" height="20" as="geometry" />
        </mxCell>
        <mxCell id="-FjoldNaI2Up81LqF_Sc-73" value="!= 200" style="text;html=1;strokeColor=none;fillColor=none;align=center;verticalAlign=middle;whiteSpace=wrap;rounded=0;" vertex="1" parent="1">
          <mxGeometry x="370" y="2541" width="40" height="20" as="geometry" />
        </mxCell>
      </root>
    </mxGraphModel>
  </diagram>
</mxfile>
